<svg xmlns="http://www.w3.org/2000/svg" width="1600" height="900" viewBox="0 0 1600 900"><defs><filter id="grain"><feTurbulence type="fractalNoise" baseFrequency="0.9" numOctaves="2" stitchTiles="stitch"/><feColorMatrix values="0 0 0 0 1  0 0 0 0 1  0 0 0 0 1  0 0 0 0.06 0"/></filter><radialGradient id="vig" cx="0.5" cy="0.5" r="0.75"><stop offset="0.55" stop-color="#000" stop-opacity="0"/><stop offset="1" stop-color="#000" stop-opacity="0.55"/></radialGradient><linearGradient id="s" x1="0" y1="0" x2="0" y2="1"><stop offset="0" stop-color="#1b2a4a"/><stop offset="0.45" stop-color="#e0795a"/><stop offset="0.62" stop-color="#f6c28b"/><stop offset="0.63" stop-color="#3a4a66"/><stop offset="1" stop-color="#0e1626"/></linearGradient><radialGradient id="sun" cx="0.5" cy="0.5" r="0.5"><stop offset="0" stop-color="#fff4d6"/><stop offset="0.4" stop-color="#ffd08a" stop-opacity="0.9"/><stop offset="1" stop-color="#ff9a5a" stop-opacity="0"/></radialGradient></defs><rect width="1600" height="900" fill="url(#s)"/>
    <circle cx="980" cy="560" r="260" fill="url(#sun)"/>
    <circle cx="980" cy="560" r="70" fill="#fff1d0"/>
    <path d="M0,580 L0.0,512.2 L40.0,524.6 L80.0,527.9 L120.0,540.8 L160.0,527.2 L200.0,537.9 L240.0,533.7 L280.0,520.3 L320.0,507.4 L360.0,521.9 L400.0,536.1 L440.0,537.0 L480.0,535.6 L520.0,537.0 L560.0,540.2 L600.0,544.0 L640.0,544.0 L680.0,541.5 L720.0,540.8 L760.0,544.0 L800.0,539.9 L840.0,539.3 L880.0,527.1 L920.0,534.6 L960.0,544.0 L1000.0,539.7 L1040.0,530.1 L1080.0,544.0 L1120.0,532.7 L1160.0,531.3 L1200.0,530.0 L1240.0,518.2 L1280.0,506.7 L1320.0,510.3 L1360.0,518.5 L1400.0,506.0 L1440.0,509.2 L1480.0,522.0 L1520.0,515.0 L1560.0,517.7 L1600.0,513.3 L1600,580 Z" fill="#3b3350" opacity="0.8" transform="translate(0,0)"/>
    <rect y="565" width="1600" height="335" fill="#1c2438" opacity="0.55"/>
    <rect x="881" y="656" width="86" height="2.6" rx="1" fill="#ffd9a8" opacity="0.35"/><rect x="1019" y="857" width="83" height="1.1" rx="1" fill="#ffd9a8" opacity="0.47"/><rect x="1267" y="631" width="55" height="2.5" rx="1" fill="#ffd9a8" opacity="0.45"/><rect x="268" y="872" width="81" height="1.6" rx="1" fill="#ffd9a8" opacity="0.32"/><rect x="368" y="771" width="72" height="1.9" rx="1" fill="#ffd9a8" opacity="0.34"/><rect x="1250" y="769" width="134" height="2.8" rx="1" fill="#ffd9a8" opacity="0.55"/><rect x="780" y="614" width="35" height="1.4" rx="1" fill="#ffd9a8" opacity="0.28"/><rect x="287" y="706" width="82" height="2.3" rx="1" fill="#ffd9a8" opacity="0.22"/><rect x="1207" y="715" width="48" height="2.0" rx="1" fill="#ffd9a8" opacity="0.52"/><rect x="458" y="632" width="63" height="1.4" rx="1" fill="#ffd9a8" opacity="0.41"/><rect x="1182" y="809" width="27" height="2.6" rx="1" fill="#ffd9a8" opacity="0.36"/><rect x="503" y="851" width="48" height="2.9" rx="1" fill="#ffd9a8" opacity="0.36"/><rect x="840" y="613" width="28" height="2.8" rx="1" fill="#ffd9a8" opacity="0.37"/><rect x="743" y="660" width="58" height="2.1" rx="1" fill="#ffd9a8" opacity="0.27"/><rect x="674" y="838" width="78" height="1.6" rx="1" fill="#ffd9a8" opacity="0.31"/><rect x="554" y="779" width="130" height="2.8" rx="1" fill="#ffd9a8" opacity="0.35"/><rect x="1178" y="631" width="71" height="1.6" rx="1" fill="#ffd9a8" opacity="0.29"/><rect x="748" y="723" width="105" height="3.0" rx="1" fill="#ffd9a8" opacity="0.43"/><rect x="47" y="599" width="49" height="1.0" rx="1" fill="#ffd9a8" opacity="0.37"/><rect x="1475" y="872" width="177" height="1.3" rx="1" fill="#ffd9a8" opacity="0.37"/><rect x="507" y="770" width="123" height="2.6" rx="1" fill="#ffd9a8" opacity="0.35"/><rect x="1505" y="680" width="80" height="2.4" rx="1" fill="#ffd9a8" opacity="0.40"/><rect x="28" y="766" width="91" height="2.2" rx="1" fill="#ffd9a8" opacity="0.33"/><rect x="219" y="830" width="143" height="1.8" rx="1" fill="#ffd9a8" opacity="0.23"/><rect x="1112" y="738" width="83" height="2.8" rx="1" fill="#ffd9a8" opacity="0.33"/><rect x="538" y="624" width="26" height="1.1" rx="1" fill="#ffd9a8" opacity="0.24"/><rect x="1450" y="882" width="176" height="2.9" rx="1" fill="#ffd9a8" opacity="0.25"/><rect x="1088" y="864" width="165" height="2.9" rx="1" fill="#ffd9a8" opacity="0.22"/><rect x="513" y="796" width="68" height="1.8" rx="1" fill="#ffd9a8" opacity="0.26"/><rect x="831" y="775" width="43" height="1.8" rx="1" fill="#ffd9a8" opacity="0.35"/><rect x="1149" y="768" width="98" height="1.6" rx="1" fill="#ffd9a8" opacity="0.48"/><rect x="497" y="860" width="172" height="1.3" rx="1" fill="#ffd9a8" opacity="0.25"/><rect x="265" y="684" width="104" height="2.6" rx="1" fill="#ffd9a8" opacity="0.38"/><rect x="892" y="845" width="152" height="1.3" rx="1" fill="#ffd9a8" opacity="0.29"/><rect x="933" y="819" width="165" height="2.4" rx="1" fill="#ffd9a8" opacity="0.34"/><rect x="1096" y="712" width="101" height="2.6" rx="1" fill="#ffd9a8" opacity="0.48"/><rect x="1026" y="900" width="28" height="2.2" rx="1" fill="#ffd9a8" opacity="0.52"/><rect x="1336" y="709" width="88" height="1.9" rx="1" fill="#ffd9a8" opacity="0.49"/><rect x="941" y="672" width="64" height="1.7" rx="1" fill="#ffd9a8" opacity="0.42"/><rect x="1269" y="660" width="57" height="2.5" rx="1" fill="#ffd9a8" opacity="0.35"/><rect x="1027" y="701" width="81" height="1.4" rx="1" fill="#ffd9a8" opacity="0.32"/><rect x="1416" y="755" width="21" height="1.8" rx="1" fill="#ffd9a8" opacity="0.52"/><rect x="307" y="601" width="39" height="2.6" rx="1" fill="#ffd9a8" opacity="0.33"/><rect x="855" y="855" width="61" height="2.4" rx="1" fill="#ffd9a8" opacity="0.47"/><rect x="1077" y="790" width="63" height="1.5" rx="1" fill="#ffd9a8" opacity="0.43"/><rect x="926" y="715" width="96" height="2.6" rx="1" fill="#ffd9a8" opacity="0.36"/><rect x="1274" y="817" width="124" height="2.4" rx="1" fill="#ffd9a8" opacity="0.47"/><rect x="282" y="739" width="38" height="1.4" rx="1" fill="#ffd9a8" opacity="0.25"/><rect x="406" y="736" width="63" height="1.4" rx="1" fill="#ffd9a8" opacity="0.36"/><rect x="889" y="614" width="37" height="1.8" rx="1" fill="#ffd9a8" opacity="0.26"/><rect x="465" y="628" width="65" height="2.4" rx="1" fill="#ffd9a8" opacity="0.49"/><rect x="1179" y="817" width="131" height="2.9" rx="1" fill="#ffd9a8" opacity="0.55"/><rect x="100" y="850" width="58" height="2.6" rx="1" fill="#ffd9a8" opacity="0.27"/><rect x="80" y="899" width="155" height="1.4" rx="1" fill="#ffd9a8" opacity="0.29"/><rect x="1047" y="794" width="92" height="2.6" rx="1" fill="#ffd9a8" opacity="0.31"/><rect x="853" y="862" width="120" height="1.9" rx="1" fill="#ffd9a8" opacity="0.27"/><rect x="823" y="643" width="77" height="1.5" rx="1" fill="#ffd9a8" opacity="0.36"/><rect x="785" y="737" width="108" height="1.5" rx="1" fill="#ffd9a8" opacity="0.36"/><rect x="1505" y="625" width="69" height="2.3" rx="1" fill="#ffd9a8" opacity="0.38"/><rect x="688" y="798" width="64" height="1.6" rx="1" fill="#ffd9a8" opacity="0.24"/><rect x="1176" y="865" width="151" height="2.2" rx="1" fill="#ffd9a8" opacity="0.29"/><rect x="830" y="656" width="67" height="2.0" rx="1" fill="#ffd9a8" opacity="0.31"/><rect x="356" y="693" width="35" height="3.0" rx="1" fill="#ffd9a8" opacity="0.27"/><rect x="870" y="700" width="28" height="1.1" rx="1" fill="#ffd9a8" opacity="0.26"/><rect x="201" y="789" width="130" height="2.7" rx="1" fill="#ffd9a8" opacity="0.52"/><rect x="509" y="689" width="40" height="2.9" rx="1" fill="#ffd9a8" opacity="0.41"/><rect x="535" y="615" width="59" height="1.4" rx="1" fill="#ffd9a8" opacity="0.25"/><rect x="668" y="891" width="157" height="1.5" rx="1" fill="#ffd9a8" opacity="0.23"/><rect x="1569" y="755" width="30" height="2.6" rx="1" fill="#ffd9a8" opacity="0.34"/><rect x="632" y="669" width="33" height="2.5" rx="1" fill="#ffd9a8" opacity="0.50"/><rect x="756" y="691" width="91" height="1.4" rx="1" fill="#ffd9a8" opacity="0.24"/><rect x="1501" y="644" width="35" height="1.3" rx="1" fill="#ffd9a8" opacity="0.46"/><rect x="1357" y="851" width="169" height="1.4" rx="1" fill="#ffd9a8" opacity="0.23"/><rect x="318" y="725" width="95" height="1.6" rx="1" fill="#ffd9a8" opacity="0.32"/><rect x="1599" y="877" width="96" height="1.9" rx="1" fill="#ffd9a8" opacity="0.26"/><rect x="817" y="791" width="57" height="2.4" rx="1" fill="#ffd9a8" opacity="0.51"/><rect x="969" y="784" width="57" height="2.2" rx="1" fill="#ffd9a8" opacity="0.41"/><rect x="354" y="766" width="117" height="1.2" rx="1" fill="#ffd9a8" opacity="0.29"/><rect x="30" y="893" width="189" height="1.6" rx="1" fill="#ffd9a8" opacity="0.22"/><rect x="392" y="898" width="149" height="2.6" rx="1" fill="#ffd9a8" opacity="0.50"/><rect x="691" y="622" width="40" height="2.4" rx="1" fill="#ffd9a8" opacity="0.33"/><rect x="755" y="704" width="36" height="1.1" rx="1" fill="#ffd9a8" opacity="0.22"/><rect x="885" y="880" width="169" height="2.0" rx="1" fill="#ffd9a8" opacity="0.50"/><rect x="303" y="651" width="88" height="1.0" rx="1" fill="#ffd9a8" opacity="0.43"/><rect x="235" y="893" width="85" height="1.8" rx="1" fill="#ffd9a8" opacity="0.48"/><rect x="744" y="678" width="100" height="2.4" rx="1" fill="#ffd9a8" opacity="0.42"/><rect x="651" y="801" width="84" height="1.6" rx="1" fill="#ffd9a8" opacity="0.42"/><rect x="1370" y="733" width="49" height="2.5" rx="1" fill="#ffd9a8" opacity="0.27"/><rect x="978" y="603" width="68" height="3.0" rx="1" fill="#ffd9a8" opacity="0.53"/><rect x="173" y="616" width="30" height="1.0" rx="1" fill="#ffd9a8" opacity="0.38"/><rect x="46" y="719" width="95" height="2.6" rx="1" fill="#ffd9a8" opacity="0.37"/><rect x="915" y="835" width="69" height="1.4" rx="1" fill="#ffd9a8" opacity="0.54"/><rect x="230" y="785" width="113" height="1.9" rx="1" fill="#ffd9a8" opacity="0.22"/><rect x="216" y="819" width="33" height="1.1" rx="1" fill="#ffd9a8" opacity="0.39"/><rect x="1553" y="638" width="51" height="1.8" rx="1" fill="#ffd9a8" opacity="0.28"/><rect x="649" y="817" width="78" height="1.4" rx="1" fill="#ffd9a8" opacity="0.30"/><rect x="255" y="775" width="131" height="2.1" rx="1" fill="#ffd9a8" opacity="0.51"/><rect x="1564" y="808" width="91" height="1.5" rx="1" fill="#ffd9a8" opacity="0.54"/><rect x="1210" y="894" width="76" height="2.5" rx="1" fill="#ffd9a8" opacity="0.48"/><rect x="1117" y="890" width="63" height="2.5" rx="1" fill="#ffd9a8" opacity="0.37"/><rect x="766" y="745" width="75" height="2.0" rx="1" fill="#ffd9a8" opacity="0.46"/><rect x="325" y="841" width="43" height="2.4" rx="1" fill="#ffd9a8" opacity="0.45"/><rect x="392" y="695" width="90" height="1.9" rx="1" fill="#ffd9a8" opacity="0.22"/><rect x="731" y="596" width="42" height="1.5" rx="1" fill="#ffd9a8" opacity="0.36"/><rect x="20" y="745" width="63" height="2.5" rx="1" fill="#ffd9a8" opacity="0.51"/><rect x="1488" y="632" width="27" height="2.3" rx="1" fill="#ffd9a8" opacity="0.51"/><rect x="1303" y="738" width="39" height="1.7" rx="1" fill="#ffd9a8" opacity="0.22"/><rect x="202" y="620" width="46" height="1.4" rx="1" fill="#ffd9a8" opacity="0.32"/><rect x="1244" y="640" width="79" height="1.0" rx="1" fill="#ffd9a8" opacity="0.37"/><rect x="1344" y="777" width="96" height="2.8" rx="1" fill="#ffd9a8" opacity="0.36"/><rect x="1513" y="615" width="57" height="1.7" rx="1" fill="#ffd9a8" opacity="0.48"/><rect x="812" y="653" width="66" height="1.5" rx="1" fill="#ffd9a8" opacity="0.52"/><rect x="712" y="645" width="79" height="2.2" rx="1" fill="#ffd9a8" opacity="0.37"/><rect x="1103" y="639" width="71" height="2.2" rx="1" fill="#ffd9a8" opacity="0.54"/><rect x="56" y="640" width="39" height="2.5" rx="1" fill="#ffd9a8" opacity="0.26"/><rect x="1342" y="697" width="57" height="2.4" rx="1" fill="#ffd9a8" opacity="0.41"/><rect x="1394" y="618" width="24" height="3.0" rx="1" fill="#ffd9a8" opacity="0.46"/><rect x="743" y="593" width="26" height="1.5" rx="1" fill="#ffd9a8" opacity="0.45"/><rect x="816" y="862" width="167" height="1.6" rx="1" fill="#ffd9a8" opacity="0.39"/><rect x="481" y="780" width="22" height="1.0" rx="1" fill="#ffd9a8" opacity="0.48"/><rect x="510" y="833" width="41" height="1.0" rx="1" fill="#ffd9a8" opacity="0.31"/><rect x="888" y="617" width="31" height="1.7" rx="1" fill="#ffd9a8" opacity="0.32"/><rect x="929" y="678" width="62" height="1.0" rx="1" fill="#ffd9a8" opacity="0.26"/><rect x="744" y="898" width="65" height="1.9" rx="1" fill="#ffd9a8" opacity="0.30"/><rect x="514" y="634" width="26" height="1.0" rx="1" fill="#ffd9a8" opacity="0.37"/><rect x="970" y="730" width="111" height="1.0" rx="1" fill="#ffd9a8" opacity="0.45"/><rect x="323" y="602" width="23" height="1.9" rx="1" fill="#ffd9a8" opacity="0.47"/><rect x="725" y="772" width="123" height="2.4" rx="1" fill="#ffd9a8" opacity="0.34"/><rect x="619" y="750" width="91" height="2.1" rx="1" fill="#ffd9a8" opacity="0.49"/><rect x="1476" y="869" width="169" height="1.7" rx="1" fill="#ffd9a8" opacity="0.32"/><rect x="121" y="794" width="53" height="2.8" rx="1" fill="#ffd9a8" opacity="0.29"/><rect x="1302" y="755" width="96" height="2.1" rx="1" fill="#ffd9a8" opacity="0.40"/><rect x="13" y="702" width="68" height="1.8" rx="1" fill="#ffd9a8" opacity="0.37"/><rect x="923" y="743" width="129" height="1.0" rx="1" fill="#ffd9a8" opacity="0.27"/><rect x="1238" y="650" width="35" height="1.9" rx="1" fill="#ffd9a8" opacity="0.53"/><rect x="633" y="775" width="85" height="2.3" rx="1" fill="#ffd9a8" opacity="0.26"/><rect x="1063" y="749" width="114" height="2.8" rx="1" fill="#ffd9a8" opacity="0.36"/><rect x="977" y="616" width="36" height="1.3" rx="1" fill="#ffd9a8" opacity="0.26"/><rect x="486" y="589" width="51" height="2.2" rx="1" fill="#ffd9a8" opacity="0.40"/><rect x="1151" y="709" width="98" height="1.0" rx="1" fill="#ffd9a8" opacity="0.23"/>
    <g fill="#0b0f1a"><path d="M380 690 L620 690 L590 720 L410 720 Z"/><rect x="495" y="560" width="6" height="130"/><path d="M501 570 L590 680 L501 680 Z" opacity="0.9"/></g>
    <g fill="#0b0f1a"><rect x="0" y="600" width="260" height="22"/><rect x="40" y="540" width="10" height="60"/><rect x="150" y="520" width="10" height="80"/></g><rect width="1600" height="900" fill="url(#vig)"/><rect width="1600" height="900" filter="url(#grain)"/></svg>
