<svg xmlns="http://www.w3.org/2000/svg" width="640" height="480" viewBox="0 0 640 480"><defs><filter id="grain"><feTurbulence type="fractalNoise" baseFrequency="0.9" numOctaves="2" stitchTiles="stitch"/><feColorMatrix values="0 0 0 0 1  0 0 0 0 1  0 0 0 0 1  0 0 0 0.06 0"/></filter><radialGradient id="vig" cx="0.5" cy="0.5" r="0.75"><stop offset="0.55" stop-color="#000" stop-opacity="0"/><stop offset="1" stop-color="#000" stop-opacity="0.55"/></radialGradient><linearGradient id="s" x1="0" y1="0" x2="0" y2="1"><stop offset="0" stop-color="#1a1a1f"/><stop offset="1" stop-color="#3a3a46"/></linearGradient></defs><rect width="640" height="480" fill="url(#s)"/>
  <g fill="#d6d8e0"><ellipse cx="140" cy="140" rx="26" ry="34"/><path d="M100 180 L180 180 L190 320 L90 320 Z"/><rect x="104" y="320" width="28" height="110" rx="8"/><rect x="148" y="320" width="28" height="110" rx="8"/></g><g fill="#c3c6d2"><ellipse cx="320" cy="140" rx="30" ry="34"/><path d="M280 180 L360 180 L370 320 L270 320 Z"/><rect x="284" y="320" width="28" height="110" rx="8"/><rect x="328" y="320" width="28" height="110" rx="8"/></g><g fill="#aeb2c0"><ellipse cx="500" cy="140" rx="26" ry="34"/><path d="M460 180 L540 180 L550 320 L450 320 Z"/><rect x="464" y="320" width="28" height="110" rx="8"/><rect x="508" y="320" width="28" height="110" rx="8"/></g>
  <g stroke="#6f95ff" stroke-opacity="0.5" stroke-dasharray="4 6"><line x1="40" y1="100" x2="600" y2="100"/><line x1="40" y1="440" x2="600" y2="440"/></g><rect width="640" height="480" fill="url(#vig)"/><rect width="640" height="480" filter="url(#grain)"/></svg>
